inDegrees=no
num_controls=7
num_derivatives=13
num_iterations=126
num_multipliers=7
num_parameters=0
num_slacks=7
num_states=26
objective=0.516803
objective_accelerations=0.039523
objective_balance=0.002199
objective_effort=0.043619
objective_height=0.419831
objective_ligament=0.011630
solver_duration=1695.119324
status=Solve_Succeeded
success=true
DataType=double
version=3
OpenSimVersion=4.5
endheader
time	/jointset/ground_pelvis/pelvis_tilt/value	/jointset/ground_pelvis/pelvis_tx/value	/jointset/ground_pelvis/pelvis_ty/value	/jointset/hip_l/hip_flexion_l/value	/jointset/hip_l/hip_adduction_l/value	/jointset/hip_l/hip_rotation_l/value	/jointset/back/lumbar_extension/value	/jointset/patellofemoral_l/patellar_flexion_l/value	/jointset/knee_l/knee_flexion_l/value	/jointset/knee_l/knee_adduction_l/value	/jointset/knee_l/knee_rotation_l/value	/jointset/ankle_l/ankle_angle_l/value	/jointset/subtalar_l/subtalar_angle_l/value	/jointset/ground_pelvis/pelvis_tilt/speed	/jointset/ground_pelvis/pelvis_tx/speed	/jointset/ground_pelvis/pelvis_ty/speed	/jointset/hip_l/hip_flexion_l/speed	/jointset/hip_l/hip_adduction_l/speed	/jointset/hip_l/hip_rotation_l/speed	/jointset/back/lumbar_extension/speed	/jointset/patellofemoral_l/patellar_flexion_l/speed	/jointset/knee_l/knee_flexion_l/speed	/jointset/knee_l/knee_adduction_l/speed	/jointset/knee_l/knee_rotation_l/speed	/jointset/ankle_l/ankle_angle_l/speed	/jointset/subtalar_l/subtalar_angle_l/speed	/forceset/tau_hip_flexion_l	/forceset/tau_hip_adduction_l	/forceset/tau_hip_rotation_l	/forceset/tau_knee_flexion_l	/forceset/tau_ankle_angle_l	/forceset/tau_subtalar_angle_l	/forceset/tau_lumbar_extension	lambda_cid13_p0	lambda_cid13_p1	lambda_cid13_p2	lambda_cid13_p3	lambda_cid13_p4	lambda_cid13_p5	lambda_cid14_p0	/jointset/ground_pelvis/pelvis_tilt/accel	/jointset/ground_pelvis/pelvis_tx/accel	/jointset/ground_pelvis/pelvis_ty/accel	/jointset/hip_l/hip_flexion_l/accel	/jointset/hip_l/hip_adduction_l/accel	/jointset/hip_l/hip_rotation_l/accel	/jointset/back/lumbar_extension/accel	/jointset/patellofemoral_l/patellar_flexion_l/accel	/jointset/knee_l/knee_flexion_l/accel	/jointset/knee_l/knee_adduction_l/accel	/jointset/knee_l/knee_rotation_l/accel	/jointset/ankle_l/ankle_angle_l/accel	/jointset/subtalar_l/subtalar_angle_l/accel	gamma_cid13_p0	gamma_cid13_p1	gamma_cid13_p2	gamma_cid13_p3	gamma_cid13_p4	gamma_cid13_p5	gamma_cid14_p0
1.5	-0.01524995710565836	-0.02581786354398193	0.8691617004860654	0.6308510501009887	-0.3114120487495976	-0.1798725038312622	-0.784196815827494	0.6355580077084753	0.6355580077084704	-0.1064348234154527	-0.1742899776044875	0.06858733702193701	0.00637396112245904	0.3880825049034566	0.2789469028269428	0.3414258926620579	-1.861755722219361	0.09222992287461501	-0.5299900031948943	0.83843063236238	-1.633270239826467	-1.633270239826551	-0.1325854468921663	-0.001288786293926143	-0.2482326862826418	0.01972672613058001	-0.2047825661996286	0.01433886174562571	-0.003953976158748084	-0.1892348534306223	0.09607955221356157	0.04683961064234859	0.2803036478342423	-11.68333421524918	-20.46195125307381	5.281038504966963	-8.428804882773941	-672.7745288925662	-81.49590169639427	-20.03635305214932	0.000174502786939236	0.6235648855033399	-0.5040488161974077	-0.6183633027920745	0.2968349563336017	-0.198313373749781	1.724804216859092	-0.5959327447181038	-0.5959327447181069	-0.3264441000505683	0.03753869260054889	0.03867792685933616	0.3182400864982979	-3.992270852207123e-09	1.019093299065855e-06	1.749492014985884e-07	1.617915358668972e-07	7.098674800475875e-08	1.410672775896857e-07	9.7102994193777e-08
1.51	-0.01136947624893745	-0.0229974545367187	0.8725501061715645	0.6122046212248359	-0.3104752064260659	-0.1851837789001281	-0.7757273224187732	0.6191978242735602	0.619197824273545	-0.1077763486400432	-0.1743029193197448	0.06610750317811954	0.00658700915852774	0.3879709593205668	0.2851079011417647	0.3361915264953925	-1.867297315686603	0.09514262787079902	-0.5322442948047804	0.8553679174181563	-1.638524502038989	-1.638524502039063	-0.1356669917321734	-0.001320610117645395	-0.2476624661557859	0.02290997179622359	-0.1976170510231757	0.0135852328143045	-0.003896152233639798	-0.1863940939792648	0.09548385582116237	0.04598758054782943	0.2736385960990805	-11.686714300406	-20.14164966235705	5.28745920341347	-8.246834191867347	-669.1592683475083	-81.41427619849992	-20.50366066896231	-0.02323533779484369	0.6083505507722208	-0.5426745042489278	-0.4871592249709908	0.2889288159205304	-0.2358092047148584	1.663170855393601	-0.4538987401130212	-0.4538987401114294	-0.2909278176506794	-0.02668043890463275	0.07696332879658885	0.3222423542525837	-1.375986327201795e-08	1.020649317105772e-06	2.106407594613519e-07	1.63476464918439e-07	6.935871602636258e-08	1.345288410380763e-07	9.092416664568408e-08
1.52	-0.007491394097838939	-0.02011623889704713	0.8758842593979274	0.5935097560427544	-0.3095091489436404	-0.1905169613151142	-0.7670914601184032	0.6027923530604011	0.602792353060376	-0.1091470729413688	-0.1743168067770486	0.06363552539021028	0.006832664760783917	0.3876027637789606	0.2911082293086112	0.3305754008348141	-1.871442983405075	0.09807295465337065	-0.5343714724189504	0.8717044106922002	-1.64232779547526	-1.642327795475323	-0.1384252622391764	-0.001477934703223464	-0.2466614751010083	0.02624823936807505	-0.1904515358467229	0.01283160388298332	-0.003838328308531543	-0.1835533345279072	0.09488815942876316	0.04513555045331031	0.2669735443639187	-11.69592765485894	-19.82032960259899	5.293720666514109	-8.068421506406015	-665.644194924738	-81.34892824038594	-20.94681379336987	-0.0511554889563474	0.5914308559082623	-0.5804007149799997	-0.3391781530381044	0.3003593136111243	-0.1728905746066106	1.604645860512582	-0.3057389894676962	-0.3057389894676965	-0.261789233449757	0.01243854022878545	0.124832112444364	0.3492444677398732	-2.173287617163752e-08	1.040921908705501e-06	2.358863414114635e-07	1.673284374154914e-07	6.575141016844191e-08	1.328882731697439e-07	8.83862523034371e-08
1.53	-0.00361845660447495	-0.01717592214217539	0.8791604200842	0.5747804425170576	-0.3085138076560598	-0.1958704106561184	-0.7582954229388423	0.5863557423078286	0.5863557423077908	-0.1105442932705456	-0.1743326248957083	0.06117542570850266	0.007112257796355033	0.3869267079719532	0.2969179426111805	0.324600779786102	-1.8741865999867	0.1009856977361808	-0.5362469550366912	0.8873809190994029	-1.644789850671136	-1.644789850671164	-0.1410233898309245	-0.001666512725766251	-0.2453165221384868	0.02967167525248294	-0.1829243587561078	0.01191506911844085	-0.003846905663525702	-0.1811239542739682	0.09462026993520838	0.04416275957464748	0.2600060132875123	-11.61831568749533	-19.45650248534508	5.28719359076652	-7.819955192716218	-662.2648697996524	-81.25785267266866	-21.36305255060555	-0.08454779313106005	0.5702000647875973	-0.6143748980405107	-0.207001027043764	0.285101890411846	-0.1840915225480526	1.530837412737656	-0.1857812152547158	-0.1857812152491335	-0.2593054382783032	-0.03160672511679961	0.1456451949365639	0.3388852825981159	-2.779914833105389e-08	1.08108085971253e-06	2.500330738481325e-07	1.734828935733991e-07	6.004112581352646e-08	1.364516907773935e-07	8.971680824240137e-08
1.54	0.0002459768975072822	-0.01417861655480666	0.882375158140341	0.556030683302281	-0.3074896649206919	-0.2012404577067382	-0.7493462838588266	0.5699006425171758	0.5699006425171256	-0.111967591058888	-0.1743497489449178	0.05873003921777638	0.007426083617531601	0.3859019655025945	0.3025059958080056	0.318290874808442	-1.875532121221088	0.1038332442108264	-0.537691014342042	0.9023247907831479	-1.646025603091297	-1.646025603091285	-0.1436407540723147	-0.001739120813148615	-0.2437188369047487	0.03309479648916556	-0.1753971816654929	0.0109985343538983	-0.003855483018518931	-0.1786945740201542	0.09435238044165352	0.04318996869598453	0.2530384822110852	-11.54676655679797	-19.09103123499964	5.279738998428146	-7.571681631042682	-658.987509820016	-81.18023476394423	-21.74968022950917	-0.1208928214266104	0.5470988347594562	-0.6474575007695631	-0.05955908359074555	0.287319991978224	-0.08660591212867101	1.4581185158211	-0.06047843432450833	-0.06047843432450862	-0.2656365633785283	0.03563252726086929	0.1753785666872362	0.349181538194819	-2.403377772173185e-08	1.070545032415007e-06	2.159387919319887e-07	1.672308177212237e-07	6.666256151114281e-08	1.43341194524058e-07	9.175267678919057e-08
1.55	0.004098523544064879	-0.01112659471839901	0.8855251607946321	0.5372744459777768	-0.3064375142307832	-0.2066224875628574	-0.7402515563137666	0.553439499522802	0.5534394995227847	-0.113417462558552	-0.1743668918374812	0.05630194276049764	0.007774004606335213	0.3845578626433325	0.3078551709554432	0.3116572529917572	-1.875475796748044	0.1065748542452012	-0.538652213779212	0.9164808172785444	-1.645971299889774	-1.645971299889812	-0.1463394395319467	-0.001690855625955393	-0.2418501782509055	0.03648085733624563	-0.1678699868546701	0.009999983888917711	-0.003908250824338522	-0.1761918039707377	0.0939555012122293	0.04221754324071656	0.246041514573509	-11.51990522702362	-18.71742769779224	5.270454978596422	-7.270013331940823	-655.7508825554326	-81.0960716123983	-22.1040455440628	-0.1486035799910279	0.5223738309236909	-0.6791551679527842	0.07414962414745112	0.2641277299097028	-0.09138819409657327	1.373359573852029	0.07311984469944609	0.07311984469205983	-0.2726961908306668	-0.01079504908297397	0.2001744209736662	0.3318758777941558	-8.940644791907477e-09	1.001600004027459e-06	1.26262471739781e-07	1.466842593356927e-07	8.749228335624069e-08	1.540629279526309e-07	9.460118812325625e-08
1.56	0.007936142249666916	-0.008022371735279418	0.8886072591015894	0.5185259561802823	-0.3053586381963823	-0.2120122316602656	-0.7310194655322619	0.5369858465899054	0.5369858465899201	-0.1148944632435273	-0.1743835957908789	0.05389404587100551	0.008155497707575534	0.3829163773114689	0.3129462251503923	0.3047100053416782	-1.873982615819182	0.1091783131092744	-0.5392338625998174	0.9297974380720643	-1.644527590795901	-1.644527590795988	-0.1490665911345839	-0.001651332980023098	-0.2396789233474306	0.03980921897650792	-0.1603427920438474	0.009001433423937198	-0.00396101863015863	-0.1736890339213211	0.09355862198280511	0.04124511778544871	0.2390445469359328	-11.49908818821312	-18.34162111714509	5.259512360874881	-6.968773708835472	-652.6161313699747	-81.02724588937477	-22.42363364512417	-0.1803693159469473	0.495474644261754	-0.7101826674484382	0.2278122075729563	0.2596897579179028	-0.01069578881581494	1.290237375445745	0.2174027441455313	0.2174027441455316	-0.271329791979564	0.03388401900868253	0.2358978166135513	0.3376416968312634	8.535902548916106e-09	9.601031268304822e-07	3.682905347554951e-08	1.268134214645699e-07	1.190728306392913e-07	1.717630484848871e-07	1.003815442469973e-07
1.57	0.01175581039431061	-0.004868618791982198	0.8916183987473133	0.4997995450793741	-0.3042544629192651	-0.2174054766604643	-0.7216586520119249	0.5205533287803503	0.5205533287803359	-0.1163991832413424	-0.1743995245516006	0.05150918617812177	0.008569872311531425	0.3809548843100294	0.3177516512500271	0.2974710837230533	-1.871038936052194	0.1116365116167477	-0.5393300779079627	0.9422097894155916	-1.64174771669223	-1.6417477166923	-0.1518792343817828	-0.001509982839805289	-0.2372518222554341	0.04305615792669299	-0.1525762855282752	0.007914857275285271	-0.00407097282025879	-0.1714981746842513	0.09343273637492125	0.04014701354590947	0.2318600770489478	-11.41029946972641	-17.91767240979886	5.234656279563097	-6.62078624502657	-649.6482099920881	-80.9094960507845	-22.70616596996295	-0.213401856698219	0.4651891205120871	-0.7377349186806191	0.3667396127038047	0.2357248458600785	0.003772443061704395	1.193412526848368	0.3424948539477611	0.342494853950741	-0.2863466834456184	0.007883048206653927	0.2523190423890829	0.3166505853465188	2.899171790348867e-08	9.529164386217173e-07	-5.230073737871179e-08	1.077872342364573e-07	1.640919097197827e-07	1.981861528967475e-07	1.098267063578327e-07
